<svg width="30" height="35" viewBox="0 0 30 35" fill="none" xmlns="http://www.w3.org/2000/svg">
<g clip-path="url(#clip0_41_508)">
<path fill-rule="evenodd" clip-rule="evenodd" d="M18.7279 26.8467V30.8377C18.7279 30.9994 18.599 31.1301 18.4395 31.1301H1.36968C1.21021 31.1301 1.08133 30.9994 1.08133 30.8377V3.53013C1.08133 3.36839 1.21021 3.23767 1.36968 3.23767H18.4395C18.599 3.23767 18.7279 3.36839 18.7279 3.53013V7.75964C18.7279 7.95461 18.9121 8.09492 19.0971 8.04027C19.2674 7.98932 19.4626 7.92802 19.6046 7.88223C19.7247 7.84383 19.8056 7.73083 19.8056 7.60381V2.4061C19.8056 1.08784 18.7519 0.0191956 17.4521 0.0191956H2.37238C1.07259 0.0191956 0.0189209 1.08784 0.0189209 2.4061V32.5791C0.0189209 33.9003 1.08497 34.9815 2.38767 34.9815H17.7259C18.8648 34.9815 19.8063 34.0266 19.8063 32.8708V26.9922C19.8063 26.8615 19.7211 26.747 19.5973 26.7108L19.0956 26.5653C18.9114 26.5129 18.7279 26.6525 18.7279 26.8467ZM12.8661 1.83596H7.53512C7.37565 1.83596 7.24677 1.70524 7.24677 1.5435V0.573087C7.24677 0.41135 7.37565 0.280632 7.53512 0.280632H12.8661C13.0255 0.280632 13.1544 0.41135 13.1544 0.573087V1.54424C13.1544 1.70524 13.0255 1.83596 12.8661 1.83596Z" fill="#00ACB0" stroke="#00ACB0" stroke-width="0.5102" stroke-miterlimit="10"/>
<path fill-rule="evenodd" clip-rule="evenodd" d="M21.3078 26.1658C26.0977 26.1658 30 22.2324 30 17.3744C30 12.5128 26.0977 8.5661 21.3078 8.5661C16.5186 8.5661 12.6207 12.5128 12.6207 17.3744C12.6207 22.2324 16.5186 26.1658 21.3078 26.1658ZM21.2874 23.5825C20.9874 23.5825 20.758 23.448 20.5265 23.2523C20.359 23.0596 20.2418 22.7849 20.2418 22.5242V18.415H16.1924C15.9266 18.415 15.6601 18.3028 15.4722 18.1233C15.2793 17.9328 15.1664 17.6595 15.1664 17.3501C15.1664 17.0421 15.2785 16.777 15.4722 16.5857C15.6601 16.387 15.9266 16.2748 16.1924 16.2748H20.2418V12.1878C20.2418 11.9138 20.359 11.648 20.5265 11.4552C20.7209 11.261 20.9874 11.1472 21.2874 11.1472C21.5932 11.1472 21.859 11.2617 22.0469 11.4552C22.2413 11.648 22.3535 11.9146 22.3535 12.1878V16.2748H26.3839C26.654 16.2748 26.9125 16.387 27.1077 16.5857C27.2948 16.7762 27.4478 17.0421 27.4478 17.3501C27.4478 17.6595 27.2948 17.9328 27.1077 18.1233C26.9133 18.302 26.654 18.415 26.3839 18.415H22.3535V22.5242C22.3535 22.7856 22.242 23.0596 22.0469 23.2523C21.859 23.448 21.5932 23.5825 21.2874 23.5825Z" fill="#00ACB0"/>
<path fill-rule="evenodd" clip-rule="evenodd" d="M12.8981 34.3855H6.91619C6.63803 34.3855 6.41229 34.1566 6.41229 33.8745V32.1648C6.41229 31.8827 6.63803 31.6537 6.91619 31.6537H12.8981C13.1763 31.6537 13.402 31.8827 13.402 32.1648V33.8745C13.402 34.1566 13.1763 34.3855 12.8981 34.3855Z" fill="white" stroke="#00ACB0" stroke-width="0.75" stroke-miterlimit="10"/>
</g>
<defs>
<clipPath id="clip0_41_508">
<rect width="30" height="35" fill="white"/>
</clipPath>
</defs>
</svg>
