<svg width="35" height="35" viewBox="0 0 35 35" fill="none" xmlns="http://www.w3.org/2000/svg">
<g clip-path="url(#clip0_21_258)">
<path d="M25.7809 35H9.21911C4.1267 35 0 30.8733 0 25.7809V9.21911C0 4.1267 4.1267 0 9.21911 0H25.7809C30.8733 0 35 4.1267 35 9.21911V25.7809C35 30.8733 30.8733 35 25.7809 35Z" fill="#25244E"/>
<path d="M9.65887 21.9785C9.02484 21.6414 8.43845 21.2346 7.90887 20.7526C7.63217 20.5016 7.3518 20.245 7.11541 19.9555C6.75625 19.5175 6.43007 19.0521 6.09473 18.594C6.00128 18.4675 5.92248 18.3338 5.83635 18.2018C5.80337 18.1359 5.77039 18.0699 5.7374 18.0021C5.55232 17.5366 5.34159 17.0804 5.19316 16.6039C5.08688 16.2649 4.90546 15.9332 4.97876 15.5484C4.99709 15.4513 4.91646 15.3395 4.88897 15.2314C4.86698 15.1471 4.85782 15.0592 4.84316 14.973C4.85416 14.94 4.86698 14.9052 4.87798 14.8722C4.86515 14.8228 4.85232 14.7715 4.8395 14.722C4.84133 14.4673 4.84316 14.2144 4.84133 13.9597C4.84133 13.8864 4.823 13.8131 4.82484 13.7398C4.82667 13.5162 4.8285 13.2945 4.8395 13.0709C4.84866 12.8932 4.86332 12.7154 4.88714 12.5395C5.1107 10.9251 5.76672 9.49398 6.78374 8.23507C7.44892 7.4123 8.23321 6.71963 9.14761 6.16439C10.0968 5.58534 11.1212 5.20785 12.1968 4.99528C12.8162 4.87434 13.4667 4.8945 14.1044 4.88167C15.2479 4.86151 16.3327 5.14921 17.3809 5.57984C18.1102 5.87853 18.7955 6.26335 19.3966 6.78193C19.4387 6.81858 19.4919 6.83874 19.5413 6.86623C19.5615 6.87905 19.5798 6.89371 19.6 6.90654C20.4539 7.65785 21.2034 8.49528 21.7476 9.50131C21.7604 9.5178 21.7751 9.53429 21.7879 9.55261C21.9492 9.85314 22.1563 10.139 22.2607 10.4578C22.4513 11.0387 22.5795 11.6398 22.7335 12.2335C22.7976 12.4791 22.8746 12.7209 22.9186 12.9702C22.9405 13.0911 22.8874 13.223 22.8856 13.3513C22.8801 13.6976 22.8984 14.0458 22.8801 14.3921C22.8599 14.777 22.8288 15.1636 22.7665 15.5448C22.7115 15.8874 22.6089 16.2209 22.5282 16.5599C22.5117 16.6094 22.4971 16.6589 22.4806 16.7084L22.4824 16.7065C22.4696 16.7249 22.4568 16.7432 22.4458 16.7615C22.0976 17.9178 21.4581 18.9073 20.7233 19.8162C21.1429 20.2359 21.568 20.6592 22.0005 21.0916C22.4348 20.7416 22.9699 20.6408 23.5764 20.7251C24.0638 20.7929 24.4138 21.0605 24.7345 21.3775C26.446 23.0743 28.1447 24.7822 29.8508 26.4827C29.9607 26.5927 30.111 26.6641 30.2411 26.7539C30.2411 26.9537 30.2411 27.1516 30.2411 27.3513C30.067 27.5327 29.8966 27.7196 29.7188 27.8974C29.1361 28.4838 28.5534 29.0702 27.9633 29.6492C27.8039 29.805 27.6133 29.9314 27.4447 30.078C27.4026 30.1147 27.3861 30.1806 27.3586 30.2338C27.1424 30.2338 26.928 30.2338 26.7118 30.2338C26.6586 30.1733 26.611 30.1073 26.5542 30.0505C24.8042 28.2987 23.0505 26.5487 21.3023 24.795C21.0091 24.5018 20.7672 24.1738 20.6591 23.7597C20.518 23.2191 20.5968 22.7115 20.9047 22.2571C21.0385 22.0592 21.0091 21.9529 20.8497 21.8044C20.529 21.5058 20.223 21.1906 19.9152 20.8754C19.8235 20.7819 19.7631 20.7654 19.6494 20.8571C19.2921 21.1466 18.9384 21.4435 18.5536 21.6945C18.2751 21.8759 17.9563 21.9969 17.6484 22.1288C17.2672 22.29 16.8879 22.4696 16.4921 22.5777C15.9534 22.7243 15.4018 22.8325 14.8502 22.9167C14.5515 22.9626 14.2382 22.9186 13.9322 22.9277C13.6958 22.9332 13.4594 22.9846 13.2248 22.9699C12.8015 22.9442 12.3819 22.9039 11.9733 22.7445C11.6801 22.6291 11.3429 22.6291 11.0405 22.5319C10.6411 22.4037 10.2563 22.2296 9.8641 22.0757C9.79081 22.0445 9.72484 22.0115 9.65887 21.9785ZM23.5764 22.0866C23.5416 22.0702 23.5068 22.0518 23.4701 22.0353C23.1934 21.9455 22.9332 21.9236 22.7115 22.1709C22.5411 22.3615 22.3652 22.5539 22.1654 22.7133C21.8631 22.9534 21.8301 23.2503 21.9144 23.5893C21.929 23.6497 21.9565 23.7157 22.0005 23.7578C22.0939 23.8495 22.2076 23.9209 22.301 24.0126C23.778 25.4859 25.2513 26.9592 26.7264 28.4343C27.0581 28.766 27.0581 28.766 27.3824 28.4416C27.8076 28.0165 28.2327 27.5914 28.6651 27.1589C28.623 27.1131 28.5973 27.0819 28.568 27.0544C26.9408 25.4272 25.3154 23.8018 23.6882 22.1764C23.6552 22.1398 23.6149 22.116 23.5764 22.0866ZM6.46489 16.2668C6.52719 16.4995 6.55468 16.7469 6.65546 16.9594C7.13374 17.9764 7.75494 18.8853 8.58688 19.6605C9.30154 20.3275 10.1316 20.7984 10.9911 21.2162C11.4492 21.4398 11.9788 21.5699 12.4882 21.6157C13.1112 21.6725 13.7343 21.8118 14.3756 21.6963C14.7366 21.6304 15.1123 21.645 15.4733 21.5369C15.7939 21.4416 16.1403 21.4123 16.4426 21.2804C16.9374 21.066 17.4303 20.8259 17.883 20.5346C18.3887 20.2084 18.889 19.8529 19.3178 19.4351C20.0196 18.7516 20.5547 17.9398 20.9597 17.0364C21.295 16.2851 21.4856 15.5026 21.5754 14.7C21.6322 14.1851 21.5809 13.6592 21.579 13.1369C21.5625 13.0544 21.546 12.972 21.5295 12.8877C21.5149 12.7851 21.5039 12.6843 21.4874 12.5817C21.3921 11.9586 21.2583 11.3466 20.9542 10.7877C20.7911 10.4872 20.6921 10.1628 20.4997 9.8678C20.0856 9.23193 19.6091 8.66204 19.0576 8.14712C18.55 7.67251 17.9764 7.29319 17.3607 6.97801C17.3387 6.8534 17.3002 6.76727 17.161 6.87905C16.9795 6.79293 16.7981 6.7068 16.6167 6.62068C16.6094 6.59319 16.6002 6.56754 16.5929 6.54005C16.5837 6.55104 16.5746 6.56021 16.5654 6.5712C16.5489 6.57487 16.5343 6.57487 16.5196 6.56937C16.4866 6.55654 16.4518 6.54555 16.4188 6.53272C16.3437 6.52722 16.2631 6.54005 16.1953 6.51623C15.3578 6.2157 14.4856 6.14607 13.6078 6.12775C13.4026 6.12408 13.1974 6.12408 12.9921 6.12225C12.9408 6.14057 12.8877 6.15706 12.8364 6.17539C12.6898 6.19555 12.5413 6.2157 12.3947 6.23586C12.2591 6.11125 12.2097 6.24136 12.1437 6.32199C12.0576 6.34031 11.9714 6.35497 11.8853 6.37696C10.751 6.68481 9.71201 7.19607 8.81777 7.95288C7.94185 8.69319 7.23452 9.5856 6.77824 10.6539C6.70861 10.8188 6.68295 11.0021 6.62065 11.1725C6.51803 11.4547 6.38059 11.7259 6.29447 12.0136C6.03792 12.8694 6.04525 13.7526 6.08374 14.634C6.0874 14.733 6.20101 14.8594 6.16803 14.9217C6.06175 15.1178 6.15887 15.2626 6.23033 15.422C6.24316 15.4568 6.25599 15.4916 6.26881 15.5264C6.32196 15.7445 6.37327 15.9644 6.42641 16.1825C6.4374 16.2063 6.45206 16.2374 6.46489 16.2668Z" fill="white"/>
<path d="M19.5982 6.9102C19.578 6.89737 19.5597 6.88272 19.5396 6.86989C19.5579 6.88455 19.578 6.89737 19.5982 6.9102Z" fill="#FDFDFD"/>
<path d="M21.7842 9.55628C21.7714 9.53979 21.7567 9.5233 21.7439 9.50497C21.7586 9.5233 21.7714 9.53979 21.7842 9.55628Z" fill="#FAFAFA"/>
<path d="M22.4403 16.7633C22.4531 16.745 22.466 16.7267 22.477 16.7084C22.4641 16.7267 22.4531 16.745 22.4403 16.7633Z" fill="white"/>
<path d="M9.65881 21.9785C9.72478 22.0115 9.79075 22.0445 9.85855 22.0775C9.71928 22.1893 9.67897 22.1031 9.65881 21.9785Z" fill="white"/>
<path d="M12.3911 6.23219C12.3507 6.38795 12.2665 6.41544 12.14 6.31832C12.206 6.23769 12.2536 6.10759 12.3911 6.23219Z" fill="white"/>
<path d="M21.5791 13.1351C21.5333 13.1058 21.449 13.0764 21.449 13.0471C21.449 12.994 21.5003 12.9408 21.5296 12.8859C21.5443 12.9683 21.5608 13.0526 21.5791 13.1351Z" fill="white"/>
<path d="M17.3589 6.97434C17.293 6.94136 17.227 6.90837 17.1592 6.87539C17.2984 6.76544 17.3388 6.85157 17.3589 6.97434Z" fill="#010101"/>
<path d="M12.9884 6.12042C12.9371 6.13875 12.884 6.15524 12.8326 6.17356C12.884 6.15524 12.9371 6.13691 12.9884 6.12042Z" fill="#FEFEFE"/>
<path d="M23.5764 22.0866C23.5416 22.0702 23.5067 22.0518 23.4701 22.0353C23.5049 22.0518 23.5416 22.0702 23.5764 22.0866Z" fill="#020202"/>
<path d="M16.6167 6.61885C16.5984 6.60236 16.5819 6.58587 16.5636 6.56937C16.5728 6.55838 16.5819 6.54922 16.5911 6.53822C16.6002 6.56571 16.6094 6.59136 16.6167 6.61885Z" fill="#FDFDFD"/>
</g>
<defs>
<clipPath id="clip0_21_258">
<rect width="35" height="35" fill="white"/>
</clipPath>
</defs>
</svg>
