<svg width="155" height="80"  viewBox="0 0 155 92" fill="none" xmlns="http://www.w3.org/2000/svg">
<path d="M54.1443 38.8496C54.2073 38.6136 54.4483 38.4736 54.6838 38.5364C54.9183 38.5996 55.0578 38.8428 54.995 39.0794C54.9314 39.3162 54.6904 39.4564 54.4551 39.3926C54.2202 39.3286 54.0811 39.0866 54.1443 38.8496Z" fill="#E53750"/>
<path d="M66.6298 33.418C67.1564 33.01 67.9107 33.1094 68.3161 33.6404C68.7201 34.1704 68.6209 34.9304 68.0935 35.3376C67.5677 35.745 66.8112 35.6456 66.4072 35.1142C66.0032 34.5838 66.1012 33.8246 66.6298 33.4182" fill="#26BCEC"/>
<path d="M55.7138 36.874C55.8386 36.57 56.1855 36.4244 56.488 36.5514C56.7906 36.6774 56.9345 37.0254 56.8089 37.3304C56.6837 37.6344 56.337 37.7794 56.0343 37.653C55.7313 37.527 55.588 37.179 55.7136 36.874" fill="#FECC38"/>
<path d="M60.4393 34.0824C60.7413 33.687 61.3045 33.6116 61.6984 33.9158C62.0924 34.2188 62.1657 34.7864 61.8633 35.1822C61.5622 35.5782 60.9983 35.6536 60.6054 35.3492C60.2119 35.0452 60.137 34.4778 60.4393 34.0822" fill="#00ACB0"/>
<path d="M57.85 35.255C58.0563 34.8966 58.5117 34.773 58.8674 34.9802C59.2251 35.1874 59.3463 35.6458 59.1409 36.0052C58.9356 36.364 58.4787 36.4872 58.123 36.2798C57.7659 36.073 57.6441 35.6142 57.85 35.2552M63.3984 33.446C63.8093 33.0328 64.4735 33.0328 64.8844 33.446C65.2944 33.858 65.2944 34.5274 64.8844 34.94C64.475 35.353 63.8087 35.354 63.3994 34.94C62.989 34.5274 62.988 33.858 63.3984 33.446ZM52.2529 38.7154C52.2529 38.471 52.45 38.2728 52.6937 38.2724C52.9361 38.2724 53.1336 38.471 53.1338 38.716C53.1338 38.9612 52.9365 39.1592 52.6931 39.159C52.4498 39.159 52.2527 38.961 52.2529 38.7154Z" fill="#233D8D"/>
<path d="M66.3545 29.9496C66.8831 29.416 67.7424 29.4156 68.2721 29.9488C68.8001 30.4812 68.8001 31.344 68.2702 31.878C67.7446 32.41 66.8839 32.41 66.3557 31.8776C65.8251 31.3444 65.8243 30.4816 66.3543 29.9496" fill="#00ACB0"/>
<path d="M62.9161 30.2168C63.3199 29.686 64.0742 29.5848 64.602 29.9924C65.1286 30.3988 65.228 31.1584 64.8236 31.6896C64.4206 32.2202 63.6641 32.3212 63.1371 31.9132C62.6105 31.506 62.5105 30.7468 62.9161 30.2168Z" fill="#FECC38"/>
<path d="M53.261 36.3984C53.3033 36.0724 53.6008 35.8414 53.9257 35.8852C54.2506 35.9278 54.4791 36.2272 54.4364 36.554C54.3937 36.88 54.0958 37.111 53.7707 37.0674C53.446 37.0244 53.2183 36.7254 53.261 36.3984Z" fill="#00ACB0"/>
<path d="M57.1076 32.4712C57.298 32.0106 57.8222 31.7912 58.281 31.9822C58.7395 32.1728 58.9563 32.7022 58.7663 33.163C58.5769 33.6242 58.0517 33.8438 57.5939 33.652C57.1358 33.4608 56.9172 32.932 57.1076 32.4712Z" fill="#E53750"/>
<path d="M54.9078 34.2784C55.0151 33.8784 55.4234 33.6404 55.8203 33.7478C56.2187 33.8544 56.4538 34.2658 56.3479 34.6664C56.242 35.0664 55.8322 35.3044 55.4352 35.1964C55.0371 35.09 54.8013 34.6784 54.908 34.2784M59.8022 31.0856C60.0927 30.5796 60.7346 30.4064 61.2375 30.6984C61.7397 30.9898 61.9116 31.6364 61.6218 32.1418C61.3323 32.647 60.6891 32.8212 60.1871 32.5284C59.6849 32.2364 59.5115 31.5906 59.8022 31.0856ZM50.3917 39.0788C50.3291 38.8428 50.4682 38.5998 50.7033 38.536C50.9378 38.4726 51.1794 38.6132 51.2426 38.85C51.3056 39.0864 51.1661 39.3292 50.9306 39.3924C50.6961 39.4556 50.4545 39.3158 50.3917 39.0788Z" fill="#26BCEC"/>
<path d="M61.7584 26.938C62.1316 26.2852 62.9616 26.061 63.6104 26.438C64.2575 26.8146 64.4792 27.648 64.1048 28.302C63.7338 28.9528 62.9026 29.177 62.2554 28.8C61.606 28.4234 61.383 27.59 61.7586 26.938" fill="#E53750"/>
<path d="M58.506 28.092C58.7593 27.474 59.4622 27.18 60.0768 27.436C60.6899 27.6916 60.9816 28.3996 60.7272 29.018C60.4745 29.6352 59.7698 29.93 59.156 29.673C58.5425 29.417 58.2504 28.7098 58.5062 28.092" fill="#00ACB0"/>
<path d="M50.7695 36.578C50.7261 36.252 50.9543 35.9516 51.2794 35.9092C51.6047 35.8658 51.902 36.0952 51.9451 36.4224C51.9874 36.7484 51.7591 37.049 51.4344 37.0916C51.1091 37.1348 50.8124 36.9052 50.7695 36.5782" fill="#E53750"/>
<path d="M53.475 31.7828C53.5406 31.2882 53.9903 30.9398 54.4825 31.0048C54.9744 31.0692 55.3199 31.524 55.2549 32.0188C55.1908 32.5134 54.7399 32.8622 54.2484 32.7962C53.7568 32.7314 53.4099 32.2774 53.475 31.7828Z" fill="#233D8D"/>
<path d="M51.8151 34.1012C51.8157 33.6872 52.149 33.3506 52.5599 33.3512C52.9723 33.3506 53.3051 33.6864 53.3057 34.1012C53.3063 34.5152 52.9719 34.852 52.5605 34.8512C52.1486 34.8516 51.8151 34.5158 51.8151 34.1012ZM55.7215 29.7424C55.8718 29.1776 56.4473 28.8434 57.0082 28.9944C57.568 29.1452 57.9005 29.7248 57.7504 30.2884C57.6008 30.8524 57.0245 31.188 56.4647 31.036C55.904 30.8848 55.5705 30.306 55.7215 29.7424ZM48.6871 39.9146C48.5659 39.7026 48.6378 39.432 48.8487 39.3092C49.0587 39.1872 49.3282 39.2598 49.45 39.4718C49.5716 39.6838 49.4997 39.9548 49.2884 40.077C49.0778 40.199 48.8085 40.127 48.6869 39.9144" fill="#FECC38"/>
<path d="M56.5446 25.2268C56.7374 24.4988 57.4814 24.0662 58.2049 24.2612C58.9267 24.4564 59.3555 25.2038 59.1617 25.9326C58.971 26.658 58.2258 27.0914 57.5036 26.8958C56.7793 26.7008 56.3499 25.954 56.5446 25.2268Z" fill="#233D8D"/>
<path d="M53.6996 27.1884C53.7854 26.5256 54.3885 26.0584 55.0483 26.1456C55.706 26.2328 56.1701 26.8406 56.0832 27.5042C55.9978 28.1666 55.3929 28.6346 54.7339 28.5462C54.0756 28.4588 53.6116 27.852 53.6996 27.1884Z" fill="#E53750"/>
<path d="M48.4089 37.4008C48.2837 37.0968 48.4268 36.7474 48.7297 36.6218C49.0323 36.4952 49.3787 36.6394 49.5039 36.9438C49.629 37.2478 49.486 37.5974 49.1829 37.7234C48.8805 37.8498 48.5345 37.7054 48.4091 37.4006" fill="#233D8D"/>
<path d="M49.7888 32.064C49.7252 31.5694 50.0702 31.1156 50.5622 31.05C51.0538 30.984 51.5045 31.3334 51.5691 31.8284C51.6339 32.3228 51.2881 32.7774 50.7965 32.8416C50.3049 32.9068 49.8528 32.559 49.7888 32.064Z" fill="#26BCEC"/>
<path d="M48.7821 34.736C48.6762 34.336 48.9113 33.924 49.3087 33.8174C49.7067 33.7094 50.1145 33.9474 50.222 34.3478C50.3289 34.7472 50.0925 35.1598 49.695 35.2658C49.2972 35.3738 48.8886 35.1364 48.7821 34.736ZM51.4342 29.508C51.4342 28.9234 51.9044 28.4506 52.485 28.4506C53.0647 28.4502 53.5346 28.9234 53.5348 29.5072C53.5354 30.0904 53.0651 30.5652 52.485 30.5638C51.9048 30.5638 51.4338 30.0918 51.4346 29.5078M47.2556 41.166C47.0841 40.993 47.0841 40.7126 47.256 40.5392C47.4274 40.3662 47.7066 40.3662 47.8787 40.5392C48.0508 40.7128 48.0506 40.9932 47.8783 41.1662C47.7062 41.3394 47.4276 41.3396 47.2556 41.166Z" fill="#00ACB0"/>
<path d="M51.0682 24.932C51.067 24.1786 51.6743 23.5666 52.4234 23.5666C53.171 23.5672 53.7773 24.1774 53.7779 24.9318C53.7799 25.6822 53.1714 26.2948 52.4236 26.2938C51.6739 26.2944 51.067 25.6848 51.068 24.9318" fill="#26BCEC"/>
<path d="M48.8246 27.568C48.7372 26.9052 49.1996 26.297 49.8592 26.2092C50.5169 26.122 51.1214 26.5884 51.2085 27.2518C51.2959 27.9134 50.8321 28.5232 50.1731 28.6098C49.5144 28.6966 48.9103 28.2314 48.8246 27.568Z" fill="#233D8D"/>
<path d="M41.4582 21.2974C41.3707 20.6348 41.8331 20.0266 42.4927 19.939C43.1504 19.8516 43.7549 20.318 43.842 20.9814C43.9294 21.6434 43.4656 22.253 42.8067 22.3394C42.1479 22.4264 41.5438 21.961 41.4582 21.2974Z" fill="#00ACB0"/>
<path d="M46.3404 38.81C46.1413 38.5494 46.1894 38.1744 46.4497 37.974C46.7097 37.7732 47.0817 37.822 47.2808 38.084C47.4795 38.3448 47.4312 38.72 47.1709 38.9204C46.911 39.1212 46.5398 39.072 46.3402 38.8104" fill="#26BCEC"/>
<path d="M46.3013 33.296C46.1121 32.8346 46.3291 32.3064 46.7874 32.115C47.2454 31.923 47.7704 32.143 47.9598 32.6044C48.1502 33.0652 47.933 33.5944 47.4745 33.7844C47.0165 33.9754 46.4905 33.7572 46.3013 33.296Z" fill="#FECC38"/>
<path d="M32.2722 24.5606C32.0834 24.0994 32.3 23.5712 32.7583 23.3798C33.2163 23.1878 33.7413 23.4078 33.9307 23.869C34.1211 24.3298 33.9039 24.859 33.4458 25.049C32.9874 25.24 32.4614 25.0218 32.2722 24.5606ZM34.5183 74.0752C34.3295 73.614 34.5461 73.0858 35.0044 72.8944C35.4626 72.7028 35.9876 72.9224 36.1772 73.3838C36.3674 73.8444 36.1502 74.3734 35.6919 74.5634C35.2337 74.7546 34.7077 74.5364 34.5185 74.075" fill="#233D8D"/>
<path d="M46.0155 36.139C45.8105 35.7802 45.9317 35.321 46.2878 35.1146C46.6447 34.9066 47.0997 35.03 47.3066 35.389C47.5125 35.747 47.3901 36.207 47.0334 36.4134C46.6771 36.6214 46.2214 36.498 46.0155 36.139ZM38.5145 18.4452C38.3095 18.0864 38.4307 17.6272 38.7868 17.4208C39.1437 17.2128 39.5987 17.3364 39.8056 17.6952C40.0117 18.0532 39.8891 18.5132 39.5326 18.7196C39.1763 18.9276 38.7204 18.8042 38.5145 18.4452ZM47.2333 30.3984C47.0829 29.8336 47.4151 29.2544 47.9761 29.1032C48.5357 28.952 49.1116 29.2864 49.2618 29.8504C49.412 30.4136 49.0798 30.9944 48.5194 31.1444C47.959 31.2958 47.3823 30.9624 47.2331 30.3984M46.1946 42.7476C45.9843 42.6252 45.9124 42.3544 46.0336 42.142C46.1548 41.9304 46.4247 41.858 46.6353 41.98C46.8464 42.1026 46.9185 42.3736 46.7963 42.5856C46.6747 42.7976 46.406 42.8704 46.1948 42.7476" fill="#E53750"/>
<path d="M45.7026 26.0734C45.5078 25.3462 45.937 24.5968 46.6608 24.4018C47.3827 24.2074 48.1253 24.6388 48.3197 25.3674C48.5144 26.0918 48.0844 26.842 47.3619 27.036C46.6379 27.232 45.8949 26.8012 45.7026 26.0734Z" fill="#FECC38"/>
<path d="M44.2134 29.204C43.9584 28.5868 44.2487 27.8788 44.8632 27.622C45.4762 27.3666 46.1799 27.6596 46.4344 28.278C46.6894 28.8944 46.3983 29.604 45.7836 29.8594C45.1696 30.1148 44.4665 29.8228 44.2134 29.204Z" fill="#26BCEC"/>
<path d="M44.705 40.7104C44.4453 40.5104 44.3956 40.1356 44.5957 39.8744C44.7948 39.6124 45.1664 39.5632 45.4263 39.764C45.6857 39.964 45.7353 40.339 45.5356 40.6004C45.3359 40.8624 44.9649 40.9114 44.705 40.7104Z" fill="#FECC38"/>
<path d="M43.249 35.394C42.9475 34.998 43.0211 34.4314 43.4147 34.127C43.8078 33.8226 44.3716 33.8982 44.6732 34.2942C44.9753 34.6902 44.9017 35.2576 44.5079 35.5606C44.1144 35.8646 43.5501 35.7906 43.2488 35.3946" fill="#00ACB0"/>
<path d="M43.7041 38.2148C43.4135 37.9216 43.4127 37.4468 43.7041 37.1544C43.9948 36.8604 44.4661 36.8612 44.7581 37.154C45.0494 37.4464 45.0494 37.9224 44.7581 38.2146C44.4671 38.5082 43.995 38.508 43.7041 38.2146" fill="#233D8D"/>
<path d="M27.7093 32.462C27.4188 32.1688 27.418 31.694 27.7093 31.4016C28 31.1076 28.4714 31.1084 28.7633 31.4012C29.0546 31.6936 29.0548 32.1698 28.7633 32.4618C28.4724 32.7554 28.0002 32.7554 27.7093 32.462Z" fill="#E53750"/>
<path d="M43.404 32.3526C43.1139 31.8462 43.2856 31.2006 43.7887 30.908C44.2903 30.616 44.9325 30.7894 45.2227 31.2948C45.5128 31.7996 45.3411 32.4474 44.8384 32.7384C44.3356 33.0304 43.6933 32.8584 43.404 32.3524M45.5766 44.5516C45.3421 44.4882 45.203 44.2456 45.2656 44.0086C45.3282 43.7726 45.57 43.6322 45.8051 43.6954C46.0402 43.759 46.1795 44.0018 46.1161 44.2386C46.0529 44.475 45.8121 44.6152 45.5766 44.5516Z" fill="#233D8D"/>
<path d="M40.8135 28.574C40.4379 27.922 40.6601 27.0864 41.3089 26.7094C41.9563 26.3338 42.7846 26.5574 43.16 27.2104C43.5346 27.8592 43.3122 28.696 42.664 29.0716C42.015 29.4492 41.1867 29.2266 40.8133 28.5736" fill="#00ACB0"/>
<path d="M40.1798 31.9856C39.7748 31.4556 39.8732 30.6964 40.4008 30.2884C40.9274 29.8818 41.6825 29.9816 42.0873 30.5124C42.4919 31.0416 42.3933 31.803 41.8651 32.2096C41.3385 32.6162 40.5836 32.5176 40.1798 31.9856Z" fill="#FECC38"/>
<path d="M43.6137 42.972C43.3116 42.8464 43.1671 42.4972 43.2931 42.1928C43.4183 41.8882 43.7647 41.7434 44.0671 41.8698C44.3692 41.9954 44.5134 42.3446 44.3879 42.6492C44.2627 42.954 43.9169 43.098 43.6138 42.9718" fill="#00ACB0"/>
<path d="M40.8401 38.216C40.4473 37.912 40.3724 37.3452 40.6746 36.9488C40.9759 36.5522 41.5398 36.4784 41.9331 36.7828C42.3266 37.0858 42.4015 37.6532 42.099 38.0488C41.797 38.4448 41.2332 38.5202 40.8401 38.216Z" fill="#E53750"/>
<path d="M42.0054 40.822C41.6493 40.6144 41.5265 40.156 41.7324 39.798C41.938 39.438 42.3935 39.316 42.7506 39.5228C43.1071 39.7294 43.2295 40.1892 43.0229 40.5472C42.8176 40.9066 42.3619 41.0292 42.0054 40.822ZM40.2078 35.238C39.7971 34.824 39.7971 34.1556 40.2078 33.742C40.6172 33.3296 41.2823 33.3296 41.6922 33.742C42.1024 34.1544 42.1036 34.8248 41.6922 35.2368C41.2823 35.6498 40.6172 35.6508 40.2078 35.2378M45.4436 46.4552C45.2008 46.4552 45.0039 46.2568 45.0035 46.0116C45.0031 45.7676 45.2006 45.5688 45.4438 45.5686C45.6875 45.5686 45.8844 45.7672 45.884 46.0122C45.884 46.2572 45.6873 46.4554 45.4436 46.4552Z" fill="#26BCEC"/>
<path d="M35.5938 30.4716C35.0638 29.9396 35.0632 29.0748 35.593 28.5416C36.122 28.0102 36.9793 28.0102 37.5098 28.5436C38.0384 29.0726 38.0384 29.9388 37.5092 30.4704C36.9795 31.0044 36.1222 31.005 35.5936 30.4716" fill="#E53750"/>
<path d="M36.9993 35.7232C36.4719 35.3172 36.3714 34.5578 36.7763 34.0264C37.1803 33.4964 37.9353 33.3964 38.4629 33.8034C38.9899 34.209 39.0902 34.9702 38.6848 35.5006C38.2802 36.0306 37.5263 36.1316 36.9993 35.7232Z" fill="#00ACB0"/>
<path d="M43.1413 45.4408C42.8174 45.398 42.5879 45.0984 42.6314 44.7716C42.6737 44.4446 42.9712 44.2146 43.2959 44.2576C43.6198 44.3006 43.8491 44.6004 43.806 44.9276C43.7633 45.2544 43.4662 45.4838 43.1413 45.4408Z" fill="#E53750"/>
<path d="M44.1373 50.324C43.8352 50.45 43.4879 50.306 43.3631 50.0012C43.2375 49.6966 43.381 49.3478 43.6834 49.2218C43.9855 49.0958 44.3326 49.2398 44.4578 49.5446C44.5834 49.8494 44.4399 50.1976 44.1371 50.3238" fill="#26BCEC"/>
<path d="M39.2393 41.5694C38.7816 41.3778 38.5636 40.8502 38.7534 40.3884C38.9426 39.927 39.4684 39.7088 39.9264 39.9C40.3845 40.0904 40.6027 40.6192 40.4121 41.08C40.2225 41.541 39.6971 41.761 39.2393 41.5694Z" fill="#233D8D"/>
<path d="M41.0349 43.783C40.6374 43.675 40.401 43.2644 40.5079 42.865C40.6138 42.464 41.0226 42.2274 41.4206 42.3338C41.818 42.4404 42.0545 42.8526 41.9472 43.2524C41.8413 43.653 41.4325 43.8904 41.0347 43.7828" fill="#FECC38"/>
<path d="M33.0722 37.236C32.5695 36.9434 32.3974 36.2974 32.6877 35.7912C32.9771 35.2858 33.6193 35.1128 34.1217 35.4044C34.6236 35.6958 34.7967 36.3432 34.5058 36.8484C34.2157 37.3538 33.5738 37.5284 33.072 37.2358" fill="#233D8D"/>
<path d="M45.8045 48.3284C45.57 48.3914 45.3286 48.2514 45.2654 48.0148C45.2024 47.7788 45.3419 47.5356 45.577 47.4722C45.8123 47.4088 46.0535 47.5494 46.1163 47.7862C46.1787 48.0226 46.0398 48.2656 45.8043 48.3286M21.9623 36.8884C21.3137 36.5128 21.091 35.6774 21.4655 35.0244C21.8397 34.3732 22.6678 34.15 23.3176 34.5268C23.9642 34.9002 24.187 35.7368 23.8124 36.3882C23.438 37.0422 22.6102 37.266 21.9623 36.8884Z" fill="#FECC38"/>
<path d="M34.8881 40.162C34.2741 39.907 33.982 39.1996 34.2364 38.5808C34.4903 37.9638 35.1938 37.6702 35.8082 37.9262C36.4215 38.181 36.7144 38.8902 36.459 39.5078C36.2047 40.1252 35.5022 40.4194 34.8883 40.1618" fill="#E53750"/>
<path d="M43.3199 47.9484C42.996 47.9918 42.6974 47.762 42.6552 47.4352C42.6121 47.1082 42.84 46.8086 43.1651 46.7658C43.4891 46.7224 43.7877 46.9524 43.8301 47.2792C43.873 47.6064 43.6452 47.9052 43.3199 47.9482" fill="#233D8D"/>
<path d="M38.5553 45.2252C38.0638 45.1592 37.7177 44.7064 37.7823 44.2112C37.8462 43.716 38.2981 43.3684 38.7898 43.4338C39.2812 43.4982 39.6279 43.9518 39.5624 44.4466C39.4978 44.9414 39.0469 45.2906 38.5553 45.225" fill="#26BCEC"/>
<path d="M40.8588 46.896C40.4475 46.8952 40.113 46.56 40.1136 46.146C40.113 45.7314 40.4467 45.3964 40.8588 45.396C41.2702 45.3952 41.6048 45.732 41.604 46.146C41.6046 46.56 41.2709 46.896 40.8588 46.896ZM36.5279 42.9644C35.967 42.813 35.6347 42.2338 35.7847 41.6692C35.9348 41.1058 36.5105 40.7712 37.0704 40.9222C37.6308 41.073 37.9647 41.653 37.8133 42.2166C37.6632 42.7806 37.0879 43.1164 36.5279 42.9644ZM46.6351 50.044C46.4245 50.166 46.1554 50.0934 46.0334 49.8814C45.9118 49.67 45.9841 49.3984 46.195 49.276C46.4056 49.1536 46.6749 49.226 46.7963 49.4386C46.9179 49.6506 46.846 49.9216 46.6353 50.044" fill="#00ACB0"/>
<path d="M32.0413 42.136C31.318 41.942 30.8882 41.1932 31.0819 40.465C31.2759 39.7386 32.0185 39.307 32.7426 39.5018C33.4633 39.6938 33.8938 40.4438 33.6994 41.1706C33.5059 41.8996 32.7635 42.3318 32.0411 42.1358" fill="#26BCEC"/>
<path d="M33.9907 44.9992C33.3318 44.9128 32.868 44.3058 32.9542 43.6418C33.0409 42.9798 33.6448 42.5126 34.3039 42.5998C34.9617 42.6858 35.4271 43.2948 35.3392 43.9578C35.2524 44.6206 34.6493 45.0878 33.9903 44.999" fill="#233D8D"/>
<path d="M19.7434 50.324C19.4414 50.45 19.094 50.306 18.9692 50.0012C18.8437 49.6966 18.9871 49.3478 19.2898 49.2218C19.5918 49.0958 19.9392 49.2398 20.0644 49.5446C20.1896 49.8494 20.0465 50.1976 19.7436 50.3238" fill="#00ACB0"/>
<path d="M24.221 46.4292C23.9189 46.5552 23.5716 46.4112 23.4468 46.1066C23.3212 45.802 23.4647 45.4532 23.7673 45.3272C24.0694 45.2012 24.4165 45.3452 24.5417 45.6502C24.6669 45.9552 24.5238 46.3032 24.221 46.4294M40.8577 70.3936C40.5556 70.5196 40.2082 70.3756 40.0834 70.071C39.9579 69.7662 40.1013 69.4176 40.404 69.2914C40.706 69.1654 41.0532 69.3094 41.1784 69.6144C41.3036 69.9194 41.1605 70.2674 40.8577 70.3936Z" fill="#E53750"/>
<path d="M38.8347 48.9348C38.343 48.9992 37.8921 48.652 37.8272 48.1568C37.7616 47.6618 38.1088 47.2082 38.6002 47.1434C39.0918 47.0778 39.5433 47.4258 39.6073 47.9206C39.6721 48.4154 39.3263 48.8708 38.8347 48.9348Z" fill="#FECC38"/>
<path d="M41.4893 49.9486C41.0919 50.0552 40.6825 49.8186 40.5766 49.4186C40.4693 49.018 40.7058 48.6076 41.1036 48.4994C41.5007 48.3918 41.9104 48.6294 42.0161 49.0298C42.1235 49.4298 41.887 49.8412 41.4895 49.9484M36.2951 47.279C35.7142 47.279 35.2442 46.8062 35.2442 46.2216C35.2438 45.6382 35.7142 45.1652 36.2941 45.165C36.8739 45.1646 37.3453 45.638 37.3443 46.2218C37.3443 46.8058 36.8753 47.2798 36.2951 47.2788M47.8783 51.4846C47.7064 51.6572 47.4278 51.6574 47.2555 51.4846C47.0836 51.3118 47.0838 51.0306 47.2559 50.8574C47.428 50.6842 47.7066 50.6844 47.8787 50.8578C48.0504 51.031 48.0508 51.3112 47.8783 51.4844" fill="#E53750"/>
<path d="M31.7482 47.6476C30.9996 47.649 30.3918 47.0376 30.3918 46.2836C30.3922 45.5312 30.9984 44.9212 31.748 44.9206C32.4936 44.9186 33.1023 45.531 33.1017 46.2834C33.1021 47.038 32.4964 47.6488 31.748 47.6474" fill="#FECC38"/>
<path d="M34.3671 49.9056C33.7088 49.9936 33.1045 49.5282 33.0174 48.8644C32.9306 48.2024 33.394 47.594 34.0531 47.5064C34.7109 47.4184 35.3166 47.8852 35.4024 48.5484C35.4889 49.2114 35.0265 49.8196 34.3671 49.9056Z" fill="#26BCEC"/>
<path d="M45.5376 52.406C45.2787 52.6064 44.9057 52.558 44.707 52.296C44.5073 52.0344 44.556 51.66 44.8163 51.4596C45.0752 51.2592 45.4478 51.308 45.6469 51.5696C45.8467 51.8316 45.798 52.2052 45.5376 52.406Z" fill="#FECC38"/>
<path d="M29.3423 57.2052C29.0834 57.4056 28.7104 57.3572 28.5117 57.0952C28.3119 56.8336 28.3606 56.4592 28.621 56.2588C28.8799 56.0584 29.2525 56.1072 29.4516 56.3688C29.6513 56.6308 29.6026 57.0044 29.3423 57.2052Z" fill="#233D8D"/>
<path d="M40.0586 52.4454C39.6003 52.6354 39.0755 52.4174 38.8853 51.9562C38.6952 51.4954 38.9136 50.9668 39.3718 50.7762C39.8296 50.5848 40.3555 50.8032 40.5442 51.2646C40.734 51.7256 40.5172 52.2552 40.0588 52.4456" fill="#00ACB0"/>
<path d="M27.8698 43.43C27.4116 43.62 26.8868 43.402 26.6966 42.9406C26.5058 42.4796 26.7244 41.9512 27.1829 41.7606C27.6409 41.569 28.1665 41.7876 28.3553 42.2486C28.5453 42.71 28.3283 43.2394 27.87 43.4298M42.8834 52.7328C42.5269 52.9392 42.0706 52.8174 41.8656 52.4588C41.6589 52.0996 41.7817 51.6416 42.1382 51.4338C42.4939 51.2258 42.951 51.349 43.156 51.7082C43.3627 52.0668 43.2401 52.5256 42.8834 52.7328ZM37.1796 51.5072C36.6184 51.6586 36.0429 51.3242 35.8927 50.7596C35.7427 50.1962 36.0751 49.6168 36.6353 49.4656C37.1949 49.3142 37.772 49.6486 37.921 50.2128C38.0716 50.7768 37.7402 51.3572 37.1798 51.5072M49.4496 52.5524C49.328 52.764 49.0591 52.8364 48.8479 52.7144C48.6377 52.5924 48.5657 52.321 48.6869 52.1088C48.8088 51.8968 49.078 51.824 49.2887 51.9468C49.4993 52.0696 49.5716 52.3402 49.4496 52.5524Z" fill="#233D8D"/>
<path d="M27.5714 53.048C26.8486 53.244 26.1042 52.8116 25.9101 52.0836C25.7173 51.3568 26.1462 50.6096 26.8699 50.4136C27.5898 50.2176 28.3352 50.6506 28.528 51.3776C28.7227 52.1062 28.2945 52.854 27.5714 53.0476" fill="#26BCEC"/>
<path d="M35.993 54.5468C35.3798 54.8034 34.6763 54.5108 34.4212 53.8928C34.1674 53.2758 34.4585 52.5674 35.0729 52.3112C35.6854 52.0546 36.3904 52.3478 36.6442 52.9662C36.898 53.5842 36.6078 54.292 35.993 54.5468Z" fill="#FECC38"/>
<path d="M47.4257 54.052C47.2269 54.3132 46.8543 54.3632 46.595 54.162C46.3347 53.9614 46.2856 53.5874 46.4853 53.326C46.684 53.0646 47.0566 53.0146 47.3164 53.216C47.5767 53.4166 47.6254 53.79 47.4257 54.052Z" fill="#00ACB0"/>
<path d="M42.1433 55.5172C41.7499 55.8204 41.1867 55.7464 40.8842 55.3502C40.5818 54.9548 40.6571 54.3876 41.0506 54.0838C41.4434 53.7798 42.0074 53.8538 42.3084 54.2504C42.6105 54.6464 42.537 55.2144 42.1435 55.5176" fill="#E53750"/>
<path d="M33.0935 66.907C32.7001 67.2102 32.1369 67.1362 31.8345 66.74C31.5318 66.3446 31.6069 65.7772 32.0004 65.4734C32.3934 65.1694 32.9574 65.2434 33.2583 65.6398C33.5603 66.0358 33.4868 66.6034 33.0933 66.9068M44.9461 55.0592C44.6547 55.3516 44.183 55.3524 43.8923 55.0592C43.6005 54.7664 43.6011 54.2922 43.8923 53.9982C44.1824 53.7054 44.6553 53.7052 44.9459 53.9986C45.2374 54.2912 45.2372 54.7662 44.9459 55.0594M39.1216 55.3612C38.6183 55.6532 37.9764 55.4804 37.6861 54.974C37.396 54.4692 37.5683 53.823 38.0702 53.531C38.5718 53.239 39.2154 53.4116 39.5046 53.9176C39.7947 54.4236 39.6238 55.0702 39.121 55.3612M51.2422 53.1744C51.1793 53.4104 50.9382 53.5504 50.7027 53.4874C50.4678 53.4246 50.3283 53.1814 50.3913 52.9446C50.4543 52.708 50.6958 52.5678 50.9308 52.6314C51.1657 52.6954 51.3052 52.9374 51.242 53.1744" fill="#26BCEC"/>
<path d="M35.3668 57.9686C34.719 58.3462 33.889 58.1226 33.5144 57.4698C33.1412 56.8178 33.3634 55.9842 34.0122 55.6064C34.6568 55.2296 35.4883 55.4536 35.8613 56.1058C36.2368 56.7588 36.0155 57.593 35.3668 57.9686Z" fill="#E53750"/>
<path d="M38.7568 58.606C38.2306 59.014 37.4759 58.9148 37.0707 58.384C36.6663 57.854 36.7654 57.094 37.2928 56.6864C37.8186 56.279 38.5752 56.3784 38.9792 56.91C39.3831 57.4406 39.2854 58.2 38.7568 58.606Z" fill="#00ACB0"/>
<path d="M49.6727 55.15C49.5481 55.454 49.201 55.5994 48.8985 55.4726C48.5959 55.3466 48.452 54.9982 48.5776 54.6936C48.7028 54.3896 49.0496 54.2444 49.3522 54.3708C49.6551 54.4968 49.7983 54.8454 49.6727 55.15Z" fill="#E53750"/>
<path d="M44.9472 57.9414C44.6452 58.3368 44.082 58.4122 43.6882 58.1082C43.2943 57.805 43.2212 57.2374 43.5232 56.8416C43.8245 56.4456 44.3882 56.3702 44.7811 56.6746C45.1746 56.9786 45.2495 57.546 44.9472 57.9416" fill="#233D8D"/>
<path d="M47.5365 56.769C47.3303 57.127 46.8748 57.251 46.5187 57.0438C46.1616 56.8366 46.0402 56.3782 46.2457 56.0186C46.4507 55.6598 46.9074 55.5366 47.2635 55.7442C47.6206 55.951 47.7424 56.4098 47.5365 56.7688M41.9881 58.578C41.5774 58.9912 40.9131 58.9912 40.5021 58.578C40.0922 58.166 40.0922 57.4966 40.5021 57.084C40.9115 56.6712 41.5778 56.6704 41.9871 57.084C42.3975 57.4966 42.3989 58.166 41.9881 58.578ZM53.1332 53.3084C53.1332 53.5528 52.9365 53.751 52.6929 53.7514C52.45 53.7514 52.2527 53.553 52.2525 53.308C52.2525 53.0628 52.4498 52.8646 52.6933 52.8648C52.9365 52.8652 53.1336 53.0628 53.1334 53.3084" fill="#FECC38"/>
<path d="M34.0603 62.0744C33.5317 62.608 32.6722 62.6084 32.1426 62.0752C31.6144 61.5428 31.6141 60.6798 32.144 60.146C32.6698 59.614 33.5305 59.6136 34.0587 60.1464C34.5893 60.6794 34.5902 61.5424 34.0603 62.0744Z" fill="#E53750"/>
<path d="M38.911 62.9944C38.5072 63.5252 37.7528 63.6264 37.2249 63.2188C36.6983 62.8124 36.5985 62.0524 37.0033 61.5216C37.4063 60.991 38.1626 60.8902 38.6896 61.298C39.2162 61.7054 39.3168 62.4644 38.911 62.9944ZM52.1257 55.6256C52.0834 55.9516 51.7859 56.1824 51.461 56.1388C51.1361 56.0962 50.9076 55.7968 50.9503 55.47C50.993 55.144 51.2909 54.913 51.616 54.9564C51.9407 54.9994 52.1684 55.2984 52.1257 55.6256Z" fill="#233D8D"/>
<path d="M48.2789 59.5528C48.0886 60.0134 47.5644 60.2328 47.1057 60.0418C46.6471 59.8512 46.4305 59.3218 46.6204 58.861C46.8096 58.3998 47.3348 58.1804 47.7925 58.3722C48.2507 58.563 48.4693 59.0916 48.2789 59.5526" fill="#26BCEC"/>
<path d="M50.4783 57.7456C50.3714 58.1456 49.9633 58.3836 49.5662 58.2762C49.1678 58.1696 48.9327 57.7582 49.0386 57.3576C49.1447 56.9576 49.5543 56.7196 49.9513 56.8276C50.3494 56.934 50.5851 57.3456 50.4783 57.7456ZM28.2106 67.901C28.1037 68.301 27.6953 68.539 27.2985 68.4314C26.8999 68.3246 26.6646 67.9134 26.7707 67.5128C26.877 67.1128 27.2864 66.8744 27.6836 66.9824C28.0816 67.0892 28.3175 67.5004 28.211 67.901M45.5843 60.9384C45.2938 61.4444 44.6523 61.6176 44.149 61.3256C43.6468 61.0342 43.4747 60.3876 43.7647 59.8822C44.054 59.377 44.6972 59.2028 45.199 59.4956C45.7014 59.7876 45.8746 60.4336 45.5841 60.9386M54.9948 52.9452C55.0574 53.1812 54.9183 53.4242 54.6832 53.4878C54.4487 53.551 54.2071 53.4104 54.1439 53.1738C54.0809 52.9374 54.2204 52.6944 54.4559 52.6314C54.6908 52.5682 54.932 52.708 54.9948 52.945" fill="#00ACB0"/>
<path d="M43.6281 65.086C43.255 65.7388 42.4247 65.963 41.7761 65.586C41.1291 65.2094 40.9071 64.376 41.2813 63.722C41.6529 63.0712 42.4839 62.847 43.1314 63.224C43.7806 63.6006 44.0033 64.434 43.6281 65.086Z" fill="#26BCEC"/>
<path d="M46.8806 63.932C46.6272 64.55 45.9243 64.844 45.3097 64.588C44.6967 64.3326 44.4049 63.6246 44.6593 63.006C44.9121 62.3888 45.6167 62.0944 46.2306 62.3512C46.844 62.6072 47.1363 63.3144 46.8804 63.9322" fill="#233D8D"/>
<path d="M54.6173 55.446C54.6602 55.772 54.4321 56.0724 54.1072 56.1148C53.7824 56.1582 53.4852 55.9288 53.4422 55.6016C53.3995 55.2756 53.6278 54.975 53.9529 54.9326C54.2777 54.8894 54.5749 55.1186 54.6175 55.4458" fill="#26BCEC"/>
<path d="M51.9117 60.2414C51.8461 60.736 51.3962 61.0842 50.9042 61.0194C50.4122 60.9548 50.0668 60.5 50.1316 60.0054C50.196 59.5106 50.6469 59.162 51.1381 59.2278C51.6299 59.2926 51.9767 59.7464 51.9117 60.241" fill="#FECC38"/>
<path d="M53.5714 57.9228C53.5708 58.3368 53.2376 58.6734 52.8266 58.6728C52.4145 58.6736 52.0814 58.3376 52.0808 57.9228C52.0804 57.5088 52.4147 57.172 52.826 57.1728C53.238 57.1724 53.5718 57.5084 53.5714 57.9228ZM49.665 62.2816C49.5146 62.8464 48.9391 63.1806 48.3781 63.0296C47.8185 62.8788 47.4859 62.2992 47.6361 61.7356C47.7857 61.1716 48.362 60.836 48.9218 60.988C49.4826 61.1392 49.816 61.718 49.665 62.2816ZM56.6994 52.1094C56.8206 52.3214 56.7487 52.5918 56.5379 52.7146C56.3278 52.837 56.0582 52.7642 55.9363 52.5522C55.8147 52.3402 55.8867 52.0692 56.0979 51.947C56.3085 51.825 56.5776 51.897 56.6992 52.1096" fill="#E53750"/>
<path d="M48.8419 66.7972C48.6492 67.5252 47.9052 67.958 47.1816 67.7628C46.4599 67.5678 46.0311 66.8202 46.2248 66.0914C46.4156 65.366 47.1608 64.9328 47.8829 65.1282C48.607 65.3232 49.0365 66.0702 48.8417 66.7974" fill="#FECC38"/>
<path d="M51.687 64.8356C51.6011 65.4982 50.998 65.9656 50.3383 65.8784C49.6805 65.7912 49.2165 65.1832 49.3029 64.5198C49.3888 63.8574 49.9937 63.3894 50.6522 63.4778C51.311 63.5652 51.775 64.1718 51.687 64.8354" fill="#26BCEC"/>
<path d="M56.9776 54.6234C57.1028 54.9274 56.9597 55.2768 56.6569 55.4024C56.3543 55.5288 56.0079 55.3844 55.8825 55.0798C55.7573 54.7758 55.9008 54.4264 56.2034 54.3004C56.5063 54.174 56.8522 54.3184 56.9776 54.6232" fill="#FECC38"/>
<path d="M55.5973 59.96C55.6613 60.4548 55.3163 60.9084 54.8243 60.974C54.3325 61.04 53.8818 60.6904 53.8174 60.196C53.7522 59.7012 54.098 59.2468 54.5896 59.1824C55.0811 59.1172 55.5329 59.465 55.5971 59.96" fill="#00ACB0"/>
<path d="M56.6044 57.288C56.7103 57.6884 56.4753 58.1 56.0778 58.2068C55.6798 58.3148 55.272 58.0768 55.1645 57.6764C55.0576 57.2768 55.2941 56.8644 55.6917 56.7584C56.0891 56.6504 56.4979 56.8878 56.6044 57.2884M53.9519 62.516C53.9519 63.1006 53.4822 63.5734 52.9013 63.5734C52.3219 63.5738 51.8517 63.1008 51.8517 62.517C51.8517 61.9338 52.3219 61.459 52.9017 61.4602C53.482 61.4602 53.9529 61.9326 53.9523 62.5162M58.131 50.858C58.3023 51.031 58.3025 51.3114 58.1306 51.4848C57.9589 51.6576 57.6795 51.6576 57.5076 51.4848C57.3355 51.3112 57.3357 51.0308 57.508 50.8576C57.6803 50.6848 57.9587 50.6844 58.1308 50.858" fill="#233D8D"/>
<path d="M54.3184 67.092C54.3196 67.8454 53.7123 68.4572 52.9631 68.4572C52.2155 68.4566 51.6093 67.8464 51.6089 67.092C51.6065 66.3416 52.215 65.729 52.9627 65.73C53.7125 65.7294 54.3194 66.3388 54.318 67.092" fill="#00ACB0"/>
<path d="M56.5619 64.4564C56.6494 65.119 56.1869 65.7272 55.5274 65.815C54.8696 65.9022 54.2651 65.4358 54.1781 64.7724C54.0907 64.1104 54.5545 63.5008 55.2134 63.4144C55.8722 63.3274 56.4765 63.7928 56.5619 64.4564Z" fill="#FECC38"/>
<path d="M59.0461 53.214C59.2452 53.4746 59.1971 53.85 58.9368 54.05C58.6769 54.251 58.3049 54.202 58.1057 53.94C57.9066 53.6792 57.9551 53.304 58.2154 53.1036C58.4754 52.9028 58.8466 52.952 59.0461 53.2136" fill="#00ACB0"/>
<path d="M59.0854 58.728C59.2742 59.1894 59.0576 59.7176 58.5994 59.909C58.1413 60.101 57.6163 59.881 57.4269 59.4196C57.2366 58.9588 57.4538 58.43 57.9118 58.2396C58.3702 58.0488 58.8962 58.2668 59.0854 58.728Z" fill="#E53750"/>
<path d="M59.371 55.885C59.5763 56.244 59.4548 56.703 59.0987 56.9094C58.7418 57.1174 58.2868 56.994 58.0801 56.6354C57.874 56.277 57.9962 55.817 58.3529 55.6108C58.7092 55.4028 59.1651 55.5262 59.371 55.885ZM58.1534 61.6256C58.3037 62.1904 57.9714 62.7696 57.4102 62.921C56.8508 63.072 56.275 62.7376 56.1245 62.1736C55.9745 61.6104 56.3067 61.0296 56.8673 60.8796C57.4277 60.7282 58.0044 61.0616 58.1536 61.6256" fill="#26BCEC"/>
<path d="M59.684 65.9506C59.8787 66.6778 59.4495 67.4272 58.7262 67.6222C58.0038 67.8166 57.2612 67.3852 57.0669 66.6562C56.8717 65.9322 57.3019 65.1818 58.0243 64.9882C58.7484 64.7922 59.4914 65.2228 59.684 65.9508" fill="#E53750"/>
<path d="M61.1734 62.82C61.4281 63.4372 61.1376 64.1454 60.5231 64.402C59.9103 64.6576 59.2064 64.3644 58.9519 63.746C58.6975 63.13 58.9885 62.42 59.6029 62.1648C60.2169 61.9092 60.92 62.2012 61.1734 62.82Z" fill="#00ACB0"/>
<path d="M60.6817 51.3136C60.9413 51.5136 60.9909 51.8884 60.791 52.1496C60.5917 52.4116 60.2201 52.4608 59.9604 52.26C59.7007 52.06 59.6512 51.685 59.8511 51.4236C60.0504 51.1616 60.4214 51.1126 60.6817 51.3136Z" fill="#E53750"/>
<path d="M62.1378 56.63C62.439 57.026 62.3655 57.5928 61.9718 57.8972C61.5788 58.2016 61.015 58.1258 60.7133 57.7298C60.4113 57.3338 60.4848 56.7666 60.8789 56.4638C61.2723 56.1598 61.8363 56.2338 62.1378 56.6298" fill="#233D8D"/>
<path d="M61.6825 53.8092C61.973 54.1024 61.9738 54.5772 61.6825 54.8696C61.3918 55.1636 60.9204 55.1628 60.6285 54.87C60.3372 54.5776 60.337 54.1016 60.6285 53.8094C60.9194 53.5158 61.3916 53.516 61.6825 53.8094M61.9825 59.6714C62.2727 60.1778 62.101 60.8238 61.5978 61.116C61.0963 61.408 60.454 61.2346 60.1639 60.7292C59.8737 60.2244 60.0454 59.5766 60.5482 59.2856C61.051 58.9936 61.6932 59.1656 61.9825 59.6716" fill="#FECC38"/>
<path d="M64.5734 63.45C64.9484 64.102 64.7264 64.9376 64.0776 65.3144C63.4298 65.69 62.6019 65.4668 62.2266 64.8136C61.852 64.1646 62.0745 63.328 62.7226 62.9524C63.3716 62.5744 64.2 62.7972 64.5732 63.4504" fill="#233D8D"/>
<path d="M65.2065 60.0384C65.6119 60.5684 65.5132 61.3276 64.9856 61.7356C64.459 62.1422 63.7038 62.0426 63.2992 61.5116C62.8945 60.9826 62.9932 60.221 63.5212 59.8146C64.0484 59.408 64.8029 59.5066 65.2063 60.0386" fill="#E53750"/>
<path d="M64.5464 53.808C64.9393 54.112 65.0142 54.6786 64.7119 55.0752C64.4107 55.4718 63.8467 55.5452 63.4535 55.2416C63.06 54.9382 62.9851 54.3704 63.2875 53.9752C63.5892 53.5792 64.1531 53.5036 64.5462 53.8078" fill="#26BCEC"/>
<path d="M65.1787 56.786C65.5895 57.1996 65.5895 57.8684 65.1787 58.282C64.7694 58.6944 64.1043 58.6944 63.6943 58.282C63.2841 57.8696 63.2833 57.199 63.6943 56.7872C64.1043 56.374 64.7694 56.3732 65.1787 56.7862" fill="#00ACB0"/>
<path d="M68.6527 59.7614C69.1829 60.2934 69.1833 61.1582 68.6535 61.6914C68.1245 62.223 67.2672 62.223 66.7367 61.6898C66.2081 61.1602 66.2081 60.2938 66.7371 59.7626C67.2668 59.2286 68.1241 59.2278 68.6527 59.7612" fill="#26BCEC"/>
<path d="M68.3872 56.3008C68.9146 56.7068 69.0152 57.4662 68.6102 57.9976C68.2064 58.5276 67.4512 58.628 66.9238 58.2208C66.3966 57.8148 66.2963 57.0538 66.7017 56.5234C67.1063 55.9934 67.8606 55.8924 68.3872 56.3008Z" fill="#233D8D"/>
<path d="M57.5082 40.5394C57.6801 40.3668 57.9587 40.3666 58.131 40.5394C58.3029 40.7124 58.3027 40.9934 58.131 41.1666C57.9585 41.3398 57.6799 41.3396 57.508 41.1662C57.3361 40.993 57.3357 40.7128 57.508 40.5396" fill="#FECC38"/>
<path d="M59.8489 39.618C60.1078 39.418 60.4808 39.4664 60.6795 39.7284C60.8792 39.9898 60.8306 40.364 60.5702 40.5644C60.3113 40.765 59.9387 40.7164 59.7396 40.4544C59.5399 40.1924 59.5886 39.819 59.8489 39.6184" fill="#233D8D"/>
<path d="M55.9368 39.4716C56.0584 39.26 56.3274 39.1876 56.5385 39.3096C56.7487 39.4316 56.8206 39.703 56.6994 39.9152C56.5776 40.1272 56.3084 40.2 56.0977 40.0772C55.8871 39.9544 55.8147 39.6838 55.9368 39.4716Z" fill="#00ACB0"/>
<path d="M57.9609 37.972C58.1596 37.7108 58.532 37.6608 58.7915 37.862C59.0518 38.0626 59.1007 38.4366 58.9012 38.698C58.7025 38.9592 58.3299 39.0092 58.0702 38.808C57.8099 38.6074 57.7612 38.234 57.9609 37.972Z" fill="#26BCEC"/>
<path d="M63.2432 36.5068C63.6367 36.2036 64.1998 36.2776 64.5023 36.6738C64.8047 37.0692 64.7296 37.6366 64.3362 37.9402C63.9431 38.2442 63.3791 38.1702 63.0783 37.7736C62.7762 37.3776 62.8498 36.8096 63.2432 36.5064" fill="#FECC38"/>
<path d="M60.4405 36.9648C60.7318 36.6724 61.2036 36.6716 61.4941 36.9648C61.7862 37.2574 61.7854 37.7318 61.4945 38.0256C61.204 38.3188 60.731 38.319 60.4407 38.0256C60.149 37.7328 60.1492 37.2576 60.4407 36.9648" fill="#E53750"/>
<path d="M80.6457 39.7012H76.7065V43.4H80.8512C81.0797 43.4 81.194 43.5 81.194 43.7012V44.6216C81.194 44.845 81.0795 44.9562 80.851 44.9562H75.2845C75.0675 44.9562 74.9592 44.8452 74.9592 44.6218V33.509C74.9592 33.297 75.0675 33.191 75.2845 33.191H80.7997C81.0283 33.191 81.1423 33.297 81.1423 33.509V34.4296C81.1423 34.6528 81.0281 34.7642 80.7997 34.7642H76.7061V38.1952H80.6455C80.851 38.1952 80.9539 38.3068 80.9539 38.5298V39.3666C80.9539 39.59 80.851 39.7014 80.6455 39.7014M87.4741 41.7764C87.3338 41.7764 87.2225 41.7084 87.141 41.5724L84.4802 36.3874V44.6214C84.4802 44.8448 84.3774 44.9562 84.1722 44.9562H83.0758C82.8584 44.9562 82.75 44.845 82.75 44.6218V33.509C82.75 33.297 82.8584 33.191 83.0758 33.191H84.1376C84.3315 33.191 84.4631 33.257 84.5315 33.389L87.461 39.0974L90.4064 33.3918C90.4747 33.2578 90.6001 33.191 90.7829 33.191H91.8449C92.0615 33.191 92.1702 33.297 92.1702 33.509V44.6218C92.1702 44.845 92.0615 44.9564 91.8447 44.9564H90.7481C90.5427 44.9564 90.4401 44.8454 90.4401 44.6224V36.4098L87.8061 41.5858C87.7477 41.7132 87.6366 41.7768 87.4733 41.7768M99.0232 41.7764C98.8827 41.7764 98.7716 41.7084 98.6899 41.5724L96.0295 36.3874V44.6214C96.0295 44.8448 95.9265 44.9562 95.7211 44.9562H94.6247C94.4077 44.9562 94.2994 44.845 94.2994 44.6218V33.509C94.2994 33.297 94.4075 33.191 94.6245 33.191H95.6867C95.8806 33.191 96.0122 33.257 96.0807 33.389L99.0099 39.0974L101.955 33.3918C102.024 33.2578 102.149 33.191 102.332 33.191H103.394C103.611 33.191 103.72 33.297 103.72 33.509V44.6218C103.72 44.845 103.611 44.9564 103.394 44.9564H102.298C102.092 44.9564 101.99 44.8454 101.99 44.6224V36.4098L99.3556 41.5858C99.2972 41.7132 99.1863 41.7768 99.0228 41.7768M108.137 40.5546H111.151L109.661 34.948H109.627L108.137 40.5546ZM108.839 33.1906H110.33C110.546 33.1906 110.689 33.3026 110.757 33.5254L114.08 44.6046C114.115 44.705 114.106 44.7886 114.055 44.8558C114.003 44.9226 113.926 44.9558 113.823 44.9558H112.642C112.459 44.9558 112.333 44.8558 112.265 44.6546L111.528 42.0774H107.706L106.977 44.6562C106.93 44.8562 106.801 44.9562 106.589 44.9562H105.37C105.125 44.9562 105.03 44.8342 105.088 44.5898L108.411 33.5106C108.479 33.2972 108.622 33.1906 108.839 33.1906M118.984 45.1236C117.659 45.1236 116.68 44.7946 116.046 44.1362C115.412 43.4782 115.096 42.4794 115.096 41.1406V33.509C115.096 33.297 115.204 33.191 115.421 33.191H116.518C116.746 33.191 116.86 33.297 116.86 33.509V40.99C116.86 41.86 117.025 42.5044 117.357 42.9228C117.688 43.3412 118.23 43.5504 118.984 43.5504C119.738 43.5504 120.279 43.3412 120.611 42.9228C120.942 42.5044 121.108 41.86 121.108 40.9898V33.5086C121.108 33.2966 121.216 33.1906 121.433 33.1906H122.546C122.763 33.1906 122.872 33.2966 122.872 33.5086V41.1402C122.872 43.7958 121.576 45.1236 118.984 45.1236ZM131.113 41.9772C131.113 43.0148 130.771 43.7932 130.086 44.3118C129.4 44.8306 128.441 45.0898 127.208 45.0898C126.066 45.0898 125.17 44.9614 124.519 44.705C124.302 44.6046 124.211 44.4706 124.245 44.303L124.485 43.4498C124.542 43.2154 124.679 43.143 124.896 43.2322C125.512 43.4556 126.232 43.567 127.054 43.567C128.572 43.567 129.332 43.0256 129.332 41.9424C129.332 41.4514 129.163 41.0436 128.827 40.72C128.49 40.3964 127.951 40.034 127.21 39.6314L126.133 39.0006C125.845 38.8316 125.555 38.605 125.264 38.3206C124.973 38.0358 124.756 37.7066 124.613 37.333C124.47 36.959 124.399 36.538 124.399 36.0694C124.399 34.0388 125.615 33.0234 128.047 33.0234C128.995 33.0234 129.783 33.1406 130.411 33.3748C130.639 33.4644 130.73 33.5982 130.685 33.7768L130.445 34.6134C130.388 34.8254 130.245 34.8924 130.017 34.8142C129.503 34.647 128.892 34.5634 128.184 34.5634C127.476 34.5634 126.965 34.6838 126.651 34.9248C126.337 35.1656 126.18 35.5548 126.18 36.092C126.18 36.3384 126.225 36.5654 126.316 36.7726C126.407 36.9796 126.565 37.1786 126.792 37.3686C127.019 37.5592 127.22 37.7066 127.395 37.811C127.571 37.9156 127.834 38.0722 128.186 38.2814C128.576 38.5134 128.881 38.695 129.101 38.8254C129.32 38.9564 129.579 39.1384 129.877 39.3722C130.174 39.6062 130.398 39.8342 130.547 40.0568C130.695 40.2798 130.827 40.558 130.941 40.8918C131.056 41.2262 131.113 41.5876 131.113 41.9772ZM79.2001 57.192C79.7267 57.192 80.2541 57.08 80.7809 56.857C80.9744 56.79 81.1034 56.8682 81.168 57.091L81.4422 57.9114C81.4849 58.0564 81.3991 58.1848 81.1839 58.2962C80.6249 58.609 79.8775 58.765 78.9423 58.765C77.4686 58.765 76.3693 58.2856 75.6436 57.3258C74.9175 56.3664 74.5546 54.8318 74.5546 52.7234C74.5546 50.626 74.9119 49.0946 75.6273 48.1294C76.3423 47.1644 77.4257 46.6814 78.8775 46.6814C79.7161 46.6814 80.4474 46.8322 81.0714 47.1334C81.2969 47.234 81.383 47.3624 81.3293 47.5184L81.071 48.3384C81.0066 48.5508 80.8776 48.6232 80.6841 48.5564C80.2107 48.3554 79.6945 48.255 79.1357 48.255C78.125 48.255 77.3937 48.5956 76.9422 49.276C76.4903 49.9566 76.2646 51.106 76.2646 52.7236C76.2646 54.3416 76.4959 55.4908 76.9581 56.1716C77.4205 56.852 78.1683 57.1922 79.2003 57.1922M84.236 56.171C84.6284 56.8738 85.2439 57.225 86.0827 57.225C86.9216 57.225 87.5369 56.8738 87.9297 56.171C88.322 55.468 88.5185 54.3246 88.5185 52.74C88.5185 51.1446 88.3218 49.9926 87.9297 49.284C87.5369 48.5756 86.9216 48.2214 86.0827 48.2214C85.2441 48.2214 84.6284 48.5754 84.236 49.284C83.8431 49.9926 83.6472 51.1446 83.6472 52.74C83.6472 54.3246 83.8431 55.468 84.236 56.171ZM82.994 48.1376C83.6875 47.1668 84.7169 46.6816 86.0827 46.6816C87.4484 46.6816 88.4782 47.1668 89.1717 48.1376C89.8652 49.1084 90.212 50.6424 90.212 52.74C90.212 54.838 89.8652 56.3664 89.1717 57.3256C88.4782 58.2856 87.4429 58.765 86.0668 58.765C84.7119 58.765 83.6873 58.2826 82.9938 57.317C82.3003 56.3524 81.9535 54.8264 81.9535 52.74C81.9535 50.6424 82.3007 49.1084 82.994 48.1376ZM99.1702 47.15V58.2794C99.1702 58.503 99.0625 58.6142 98.8467 58.6142H97.8279C97.6339 58.6142 97.4992 58.5314 97.4237 58.3658L93.3156 49.9958V58.2798C93.3156 58.5032 93.2186 58.6144 93.0251 58.6144H92.009C91.8043 58.6144 91.7024 58.5034 91.7024 58.2798V47.1672C91.7024 46.9552 91.8037 46.8492 92.0064 46.8492H93.0159C93.219 46.8492 93.3577 46.9296 93.4324 47.0898L97.5415 55.4984V47.1684C97.5415 46.9556 97.6433 46.8492 97.8476 46.8492H98.8477C99.0629 46.8492 99.1706 46.9496 99.1706 47.1506M108.482 47.15V58.2794C108.482 58.503 108.374 58.6142 108.158 58.6142H107.139C106.945 58.6142 106.811 58.5314 106.735 58.3658L102.627 49.9958V58.2798C102.627 58.5032 102.53 58.6144 102.336 58.6144H101.32C101.116 58.6144 101.014 58.5034 101.014 58.2798V47.1672C101.014 46.9552 101.115 46.8492 101.318 46.8492H102.327C102.53 46.8492 102.669 46.9296 102.744 47.0898L106.853 55.4984V47.1684C106.853 46.9556 106.955 46.8492 107.159 46.8492H108.159C108.374 46.8492 108.482 46.9496 108.482 47.1506M115.681 53.3592H111.971V57.0578H115.874C116.089 57.0578 116.196 57.1578 116.196 57.3588V58.2794C116.196 58.5028 116.089 58.614 115.874 58.614H110.632C110.427 58.614 110.325 58.503 110.325 58.2796V47.1668C110.325 46.9548 110.427 46.8488 110.632 46.8488H115.825C116.04 46.8488 116.148 46.9548 116.148 47.1668V48.0874C116.148 48.3106 116.04 48.422 115.825 48.422H111.97V51.853H115.68C115.874 51.853 115.97 51.9644 115.97 52.1876V53.0244C115.97 53.2478 115.874 53.3592 115.68 53.3592M121.834 57.192C122.361 57.192 122.888 57.08 123.415 56.857C123.608 56.79 123.737 56.8682 123.801 57.091L124.076 57.9114C124.119 58.0564 124.033 58.1848 123.818 58.2962C123.259 58.609 122.511 58.765 121.576 58.765C120.103 58.765 119.003 58.2856 118.277 57.3258C117.551 56.3664 117.189 54.8318 117.189 52.7234C117.189 50.626 117.546 49.0946 118.261 48.1294C118.976 47.1644 120.06 46.6814 121.511 46.6814C122.35 46.6814 123.081 46.8322 123.705 47.1334C123.931 47.234 124.017 47.3624 123.963 47.5184L123.705 48.3384C123.641 48.5508 123.511 48.6232 123.318 48.5564C122.845 48.3554 122.328 48.255 121.769 48.255C120.759 48.255 120.027 48.5956 119.576 49.276C119.124 49.9566 118.898 51.106 118.898 52.7236C118.898 54.3416 119.13 55.4908 119.592 56.1716C120.054 56.852 120.802 57.1922 121.834 57.1922M124.921 48.1208V47.1668C124.921 46.9552 125.023 46.8488 125.228 46.8488H131.26C131.475 46.8488 131.583 46.9552 131.583 47.1668V48.1208C131.583 48.3328 131.475 48.4388 131.26 48.4388H129.082V58.2796C129.082 58.503 128.975 58.6144 128.76 58.6144H127.728C127.523 58.6144 127.421 58.503 127.421 58.2796V48.4388H125.227C125.023 48.4388 124.921 48.3328 124.921 48.1208Z" fill="#272350"/>
<path d="M116.721 30.798C116.721 30.3352 117.094 29.96 117.554 29.96C118.013 29.96 118.386 30.3352 118.386 30.798C118.386 31.2608 118.013 31.636 117.554 31.636C117.094 31.636 116.721 31.2608 116.721 30.798ZM119.581 30.798C119.581 30.3352 119.954 29.96 120.414 29.96C120.874 29.96 121.246 30.3352 121.246 30.798C121.246 31.2608 120.874 31.636 120.414 31.636C119.954 31.636 119.581 31.2608 119.581 30.798Z" fill="#E53750"/>
</svg>
