<svg width="26" height="27" viewBox="0 0 26 27" fill="none" xmlns="http://www.w3.org/2000/svg">
<path d="M12.6317 27C19.5965 27 25.2634 21.3331 25.2634 14.3683C25.2634 9.07878 21.9918 4.54559 17.3686 2.66663V6.17665C20.1949 7.81877 22.1054 10.8709 22.1054 14.3683C22.1054 19.5931 17.8565 23.8421 12.6317 23.8421C7.4069 23.8421 3.15792 19.5931 3.15792 14.3683C3.15792 10.8709 5.06846 7.81719 7.8948 6.17665V2.66663C3.2716 4.54559 0 9.07878 0 14.3683C0 21.3331 5.66689 27 12.6317 27Z" fill="#00ACB0"/>
<path d="M11 0H14V14H11V0Z" fill="#00ACB0"/>
</svg>
