<svg class="d-none d-sm-block" width="410" height="801" viewBox="0 0 410 801" fill="none" xmlns="http://www.w3.org/2000/svg">
<path d="M383.881 801H26.2213C13.2542 801 2.75087 790.49 2.75087 777.536V23.4638C2.75087 10.5096 13.2635 0 26.2213 0H383.881C396.848 0 407.36 10.5096 407.36 23.4638V777.527C407.36 790.49 396.848 801 383.881 801Z" fill="#375A64"/>
<path d="M9.12325 774.045V26.9547C9.12325 15.5839 18.3391 6.37061 29.7131 6.37061H380.398C391.772 6.37061 400.988 15.5839 400.988 26.9547V774.045C400.988 785.416 391.772 794.629 380.398 794.629H29.7131C18.3391 794.62 9.12325 785.407 9.12325 774.045Z" fill="#1A2E35"/>
<path d="M175.991 31.6215C173.509 31.6215 171.489 29.6029 171.489 27.1213C171.489 24.6397 173.509 22.6212 175.991 22.6212H233.861C236.343 22.6212 238.362 24.6397 238.362 27.1213C238.362 29.6029 236.343 31.6215 233.861 31.6215H175.991Z" fill="#375A64"/>
<path d="M144.972 31.6215C142.489 31.6215 140.47 29.6029 140.47 27.1213C140.47 24.6397 142.489 22.6212 144.972 22.6212C147.454 22.6212 149.473 24.6397 149.473 27.1213C149.473 29.6029 147.445 31.6215 144.972 31.6215Z" fill="#375A64"/>
<path d="M161.533 31.6215C159.05 31.6215 157.031 29.6029 157.031 27.1213C157.031 24.6397 159.05 22.6212 161.533 22.6212C164.015 22.6212 166.034 24.6397 166.034 27.1213C166.034 29.6029 164.006 31.6215 161.533 31.6215Z" fill="#375A64"/>
<path d="M265.139 31.6215C262.657 31.6215 260.638 29.6029 260.638 27.1213C260.638 24.6397 262.657 22.6212 265.139 22.6212C267.622 22.6212 269.641 24.6397 269.641 27.1213C269.641 29.6029 267.622 31.6215 265.139 31.6215Z" fill="#375A64"/>
<path d="M248.579 31.6215C246.096 31.6215 244.077 29.6029 244.077 27.1213C244.077 24.6397 246.096 22.6212 248.579 22.6212C251.061 22.6212 253.08 24.6397 253.08 27.1213C253.08 29.6029 251.061 31.6215 248.579 31.6215Z" fill="#375A64"/>
<path d="M364.069 11.7782H294.028C288.739 11.7782 284.09 15.2691 282.617 20.3433L278.162 35.6864C276.513 41.3718 271.308 45.2794 265.389 45.2794H144.712C138.794 45.2794 133.589 41.3718 131.94 35.6864L127.485 20.3433C126.012 15.2691 121.362 11.7782 116.074 11.7782H61.6121C37.66 11.7782 18.2372 31.1955 18.2372 55.1408V754.702C18.2372 770.888 31.3618 784.009 47.5521 784.009H366.116C380.333 784.009 391.865 772.49 391.865 758.267V39.5662C391.865 24.2231 379.416 11.7782 364.069 11.7782Z" fill="#00ACB0"/>
<path d="M379.351 24.6953C371.488 16.7321 360.568 11.7782 348.49 11.7782H285.099L275.374 45.2701H134.728L125.002 11.7782H46.5795C30.9264 11.7782 18.2372 24.4638 18.2372 40.1125V546.63L19.3487 546.76C55.7676 550.714 91.1955 527.833 111.183 497.147C131.171 466.461 138.238 429.2 141.758 392.754C145.277 356.299 145.722 319.335 154.28 283.732C168.655 223.952 206.565 170.163 258.045 136.523C283.451 119.912 311.904 108.078 336.125 89.7809C357.446 73.6785 375.776 50.6499 379.351 24.6953Z" fill="#00C1C1"/>
<path d="M391.865 766.434V542.306C334.346 548.13 280.505 582.955 251.607 633.013C225.544 678.162 220.375 734.674 237.029 783.999H374.294C384.001 783.999 391.865 776.138 391.865 766.434Z" fill="#00C1C1"/>
<path d="M407.351 174.099H409.018C409.565 174.099 410.009 174.543 410.009 175.089V265.176C410.009 265.722 409.565 266.167 409.018 266.167H407.351V174.099Z" fill="#375A64"/>
<path d="M2.75087 230.832H0.991054C0.444585 230.832 0 231.277 0 231.823V288.13C0 288.677 0.444585 289.121 0.991054 289.121H2.75087V230.832Z" fill="#375A64"/>
<path d="M2.75087 154.681H0.991054C0.444585 154.681 0 155.126 0 155.672V211.98C0 212.526 0.444585 212.97 0.991054 212.97H2.75087V154.681Z" fill="#375A64"/>
<path d="M2.75087 97.5219H1.25966C0.778023 97.5219 0.379749 97.9108 0.379749 98.4016V123.745C0.379749 124.227 0.768761 124.625 1.25966 124.625H2.75087V97.5219Z" fill="#375A64"/>
<path d="M303.939 37.8439H301.16V41.7422H303.939V37.8439Z" fill="white"/>
<path d="M308.468 36.1031H305.689V41.7329H308.468V36.1031Z" fill="white"/>
<path d="M312.988 34.8068H310.209V41.7422H312.988V34.8068Z" fill="white"/>
<path d="M317.508 32.2881H314.729V41.7329H317.508V32.2881Z" fill="white"/>
<path d="M358.539 41.9274H344.59C344.044 41.9274 343.59 41.4829 343.59 40.9273V33.9919C343.59 33.4363 344.035 32.9919 344.581 32.9919H358.539C358.604 32.9919 358.669 33.0197 358.724 33.066C358.771 33.1123 358.799 33.1771 358.799 33.2511V35.5383H360.29C360.429 35.5383 360.549 35.6494 360.549 35.7975V39.1402C360.549 39.2791 360.438 39.3995 360.29 39.3995H358.799V41.6866C358.799 41.8163 358.678 41.9274 358.539 41.9274ZM358.289 33.5104H344.581C344.313 33.5104 344.1 33.7234 344.1 34.0012V40.9366C344.1 41.2051 344.322 41.4274 344.59 41.4274H358.28V39.1402C358.28 39.0013 358.391 38.881 358.539 38.881H360.03V36.0475H358.539C358.4 36.0475 358.28 35.9364 358.28 35.7883V33.5104H358.289Z" fill="white"/>
<path d="M345.239 40.2792V34.6494H357.15V37.1865V37.7421V40.2792H345.239Z" fill="white"/>
<path d="M330.818 41.3996C330.818 40.8348 330.364 40.381 329.799 40.381C329.234 40.381 328.78 40.8348 328.78 41.3996C328.78 41.9644 329.234 42.4182 329.799 42.4182C330.364 42.4182 330.818 41.9644 330.818 41.3996Z" fill="white"/>
<path d="M326.316 38.9365L327.622 40.2329C328.178 39.6773 328.947 39.3347 329.799 39.3347C330.651 39.3347 331.42 39.6773 331.975 40.2329L333.281 38.9365C332.392 38.0476 331.16 37.492 329.808 37.492C328.437 37.5013 327.205 38.0476 326.316 38.9365Z" fill="white"/>
<path d="M329.789 34.6031C327.631 34.6031 325.677 35.4827 324.26 36.8994L325.557 38.1958C326.64 37.1124 328.132 36.4457 329.78 36.4457C331.429 36.4457 332.92 37.1124 334.004 38.1958L335.31 36.8994C333.902 35.4735 331.948 34.6031 329.789 34.6031Z" fill="white"/>
<path d="M322.148 34.779L323.454 36.0846C325.075 34.4642 327.326 33.4549 329.799 33.4549C332.272 33.4549 334.513 34.4642 336.143 36.0846L337.449 34.779C335.495 32.8252 332.79 31.6122 329.808 31.6122C326.816 31.6029 324.112 32.816 322.148 34.779Z" fill="white"/>
</svg>
